<mxfile host="65bd71144e">
    <diagram id="Rd9KSDftF9Zw8lbPBkGI" name="Page-1">
        <mxGraphModel dx="883" dy="966" grid="0" gridSize="10" guides="1" tooltips="1" connect="1" arrows="1" fold="1" page="0" pageScale="1" pageWidth="827" pageHeight="1169" background="none" math="0" shadow="0">
            <root>
                <mxCell id="0"/>
                <mxCell id="1" parent="0"/>
                <mxCell id="114" value="" style="rounded=0;whiteSpace=wrap;html=1;fontColor=#1A1A1A;strokeColor=none;fillColor=#CCCCCC;fontFamily=Helvetica;labelBackgroundColor=none;" parent="1" vertex="1">
                    <mxGeometry x="198" y="-124" width="1052" height="370" as="geometry"/>
                </mxCell>
                <mxCell id="116" value="1: &lt;b&gt;result&lt;/b&gt;&amp;nbsp;= request()" style="edgeStyle=none;html=1;fontColor=#1A1A1A;strokeColor=#1A1A1A;labelBackgroundColor=default;fontFamily=Helvetica;" parent="1" source="119" target="121" edge="1">
                    <mxGeometry x="-0.1841" y="2" relative="1" as="geometry">
                        <mxPoint as="offset"/>
                    </mxGeometry>
                </mxCell>
                <mxCell id="119" value="" style="rounded=0;whiteSpace=wrap;html=1;fontColor=#1A1A1A;fillColor=none;fontFamily=Helvetica;labelBackgroundColor=none;strokeColor=default;dashed=1;" parent="1" vertex="1">
                    <mxGeometry x="448" y="385" width="203" height="138" as="geometry"/>
                </mxCell>
                <mxCell id="118" style="edgeStyle=none;html=1;fontColor=#1A1A1A;endArrow=none;endFill=0;strokeColor=default;fontFamily=Helvetica;labelBackgroundColor=none;" parent="1" source="121" target="129" edge="1">
                    <mxGeometry relative="1" as="geometry"/>
                </mxCell>
                <mxCell id="121" value="docs" style="rounded=0;whiteSpace=wrap;html=1;fontColor=#1A1A1A;fillColor=#999999;fontFamily=Helvetica;labelBackgroundColor=none;strokeColor=none;" parent="1" vertex="1">
                    <mxGeometry x="373" y="149" width="120" height="60" as="geometry"/>
                </mxCell>
                <mxCell id="122" value="user guide" style="rounded=0;whiteSpace=wrap;html=1;fontColor=#1A1A1A;fillColor=#999999;fontFamily=Helvetica;labelBackgroundColor=none;strokeColor=none;" parent="1" vertex="1">
                    <mxGeometry x="243" y="-57" width="120" height="60" as="geometry"/>
                </mxCell>
                <mxCell id="123" value="FAQ" style="rounded=0;whiteSpace=wrap;html=1;fontColor=#1A1A1A;fillColor=#999999;fontFamily=Helvetica;labelBackgroundColor=none;strokeColor=none;" parent="1" vertex="1">
                    <mxGeometry x="373" y="-57" width="120" height="60" as="geometry"/>
                </mxCell>
                <mxCell id="197" style="edgeStyle=orthogonalEdgeStyle;html=1;labelBackgroundColor=none;strokeColor=default;fontFamily=Helvetica;fontColor=#1A1A1A;endArrow=open;endFill=0;curved=1;exitX=0.5;exitY=0;exitDx=0;exitDy=0;dashed=1;" parent="1" source="124" target="123" edge="1">
                    <mxGeometry relative="1" as="geometry">
                        <Array as="points">
                            <mxPoint x="563" y="-92"/>
                            <mxPoint x="433" y="-92"/>
                        </Array>
                    </mxGeometry>
                </mxCell>
                <mxCell id="198" value="trained on" style="edgeStyle=orthogonalEdgeStyle;curved=1;html=1;entryX=0.5;entryY=0;entryDx=0;entryDy=0;labelBackgroundColor=none;strokeColor=default;fontFamily=Helvetica;fontColor=#1A1A1A;endArrow=open;endFill=0;exitX=0.5;exitY=0;exitDx=0;exitDy=0;dashed=1;" parent="1" source="124" target="122" edge="1">
                    <mxGeometry x="0.3578" y="15" relative="1" as="geometry">
                        <Array as="points">
                            <mxPoint x="563" y="-101"/>
                            <mxPoint x="303" y="-101"/>
                        </Array>
                        <mxPoint as="offset"/>
                    </mxGeometry>
                </mxCell>
                <mxCell id="124" value="chatGPT" style="rounded=0;whiteSpace=wrap;html=1;fontColor=#1A1A1A;fillColor=#999999;fontFamily=Helvetica;labelBackgroundColor=none;strokeColor=none;" parent="1" vertex="1">
                    <mxGeometry x="503" y="-57" width="120" height="60" as="geometry"/>
                </mxCell>
                <mxCell id="125" style="edgeStyle=orthogonalEdgeStyle;html=1;entryX=0.583;entryY=1.027;entryDx=0;entryDy=0;entryPerimeter=0;fontColor=#1A1A1A;endArrow=none;endFill=0;strokeColor=default;fontFamily=Helvetica;labelBackgroundColor=none;" parent="1" source="129" target="122" edge="1">
                    <mxGeometry relative="1" as="geometry">
                        <Array as="points">
                            <mxPoint x="433" y="40"/>
                            <mxPoint x="313" y="40"/>
                        </Array>
                    </mxGeometry>
                </mxCell>
                <mxCell id="126" style="edgeStyle=orthogonalEdgeStyle;html=1;fontColor=#1A1A1A;endArrow=none;endFill=0;strokeColor=default;fontFamily=Helvetica;labelBackgroundColor=none;" parent="1" source="129" target="123" edge="1">
                    <mxGeometry relative="1" as="geometry"/>
                </mxCell>
                <mxCell id="127" style="edgeStyle=orthogonalEdgeStyle;html=1;fontColor=#1A1A1A;endArrow=none;endFill=0;strokeColor=default;fontFamily=Helvetica;labelBackgroundColor=none;" parent="1" source="129" target="124" edge="1">
                    <mxGeometry relative="1" as="geometry">
                        <Array as="points">
                            <mxPoint x="433" y="39"/>
                            <mxPoint x="563" y="39"/>
                        </Array>
                    </mxGeometry>
                </mxCell>
                <mxCell id="129" value="" style="triangle;whiteSpace=wrap;html=1;fontColor=#1A1A1A;rotation=90;fillColor=#999999;fontFamily=Helvetica;labelBackgroundColor=none;strokeColor=none;" parent="1" vertex="1">
                    <mxGeometry x="418" y="65" width="30" height="50" as="geometry"/>
                </mxCell>
                <mxCell id="140" value="2: update(&lt;br&gt;&lt;span style=&quot;&quot;&gt;&amp;nbsp; &amp;nbsp; data = &lt;/span&gt;&lt;b style=&quot;&quot;&gt;info&lt;/b&gt;&lt;span style=&quot;&quot;&gt;,&lt;/span&gt;&lt;br&gt;&lt;div style=&quot;&quot;&gt;&amp;nbsp; &amp;nbsp; approver =&amp;nbsp;&lt;i&gt;L3 Worker&lt;/i&gt;&amp;nbsp;&lt;i&gt;,&lt;/i&gt;&lt;br&gt;&lt;/div&gt;&lt;div style=&quot;&quot;&gt;&lt;i&gt;&amp;nbsp; &amp;nbsp;&amp;nbsp;&lt;/i&gt;mandatory = DIPM,&lt;/div&gt;&lt;div style=&quot;&quot;&gt;&amp;nbsp; &amp;nbsp; template = template,&lt;/div&gt;&lt;div style=&quot;&quot;&gt;&amp;nbsp; &amp;nbsp; PR = True&lt;/div&gt;&lt;div style=&quot;&quot;&gt;)&lt;/div&gt;" style="edgeStyle=none;html=1;align=left;exitX=0.5;exitY=0;exitDx=0;exitDy=0;strokeColor=default;labelBackgroundColor=default;fontColor=#1A1A1A;fontFamily=Helvetica;entryX=0.5;entryY=1;entryDx=0;entryDy=0;entryPerimeter=0;" parent="1" source="119" target="153" edge="1">
                    <mxGeometry x="-0.3047" y="-12" relative="1" as="geometry">
                        <mxPoint x="679" y="199" as="targetPoint"/>
                        <mxPoint as="offset"/>
                    </mxGeometry>
                </mxCell>
                <mxCell id="149" style="edgeStyle=orthogonalEdgeStyle;html=1;endArrow=oval;endFill=1;curved=1;fontColor=#1A1A1A;fontFamily=Helvetica;labelBackgroundColor=none;" parent="1" source="153" edge="1">
                    <mxGeometry relative="1" as="geometry">
                        <mxPoint x="677" as="targetPoint"/>
                    </mxGeometry>
                </mxCell>
                <mxCell id="150" value="main" style="edgeLabel;html=1;align=center;verticalAlign=middle;resizable=0;points=[];fontColor=#1A1A1A;fontFamily=Helvetica;labelBackgroundColor=none;" parent="149" vertex="1" connectable="0">
                    <mxGeometry x="0.3083" y="-1" relative="1" as="geometry">
                        <mxPoint x="-16" y="8" as="offset"/>
                    </mxGeometry>
                </mxCell>
                <mxCell id="151" value="feature" style="edgeStyle=orthogonalEdgeStyle;curved=1;html=1;endArrow=oval;endFill=1;exitX=0.5;exitY=0;exitDx=0;exitDy=0;exitPerimeter=0;fontColor=#1A1A1A;fontFamily=Helvetica;labelBackgroundColor=none;" parent="1" source="153" edge="1">
                    <mxGeometry x="0.3565" y="-4" relative="1" as="geometry">
                        <mxPoint x="753" as="targetPoint"/>
                        <Array as="points">
                            <mxPoint x="676" y="72"/>
                            <mxPoint x="753" y="72"/>
                        </Array>
                        <mxPoint as="offset"/>
                    </mxGeometry>
                </mxCell>
                <mxCell id="152" style="html=1;startArrow=none;startFill=0;endArrow=none;endFill=0;dashed=1;strokeColor=default;fontColor=#1A1A1A;fontFamily=Helvetica;labelBackgroundColor=none;" parent="1" source="153" target="121" edge="1">
                    <mxGeometry relative="1" as="geometry"/>
                </mxCell>
                <mxCell id="153" value="docs" style="verticalLabelPosition=bottom;html=1;verticalAlign=top;align=center;strokeColor=none;fillColor=#00BEF2;shape=mxgraph.azure.git_repository;dashed=1;fontColor=#1A1A1A;fontFamily=Helvetica;labelBackgroundColor=#CCCCCC;" parent="1" vertex="1">
                    <mxGeometry x="651" y="153" width="50" height="50" as="geometry"/>
                </mxCell>
                <mxCell id="154" value="PR" style="endArrow=none;dashed=1;html=1;strokeWidth=2;curved=1;startArrow=open;startFill=0;fontColor=#1A1A1A;fontFamily=Helvetica;labelBackgroundColor=none;" parent="1" edge="1">
                    <mxGeometry y="9" width="50" height="50" relative="1" as="geometry">
                        <mxPoint x="681" as="sourcePoint"/>
                        <mxPoint x="751" as="targetPoint"/>
                        <mxPoint as="offset"/>
                    </mxGeometry>
                </mxCell>
                <mxCell id="211" value="dev user guide in docstrings" style="edgeStyle=orthogonalEdgeStyle;html=1;entryX=0.5;entryY=1;entryDx=0;entryDy=0;entryPerimeter=0;curved=1;" edge="1" parent="1" source="200" target="208">
                    <mxGeometry x="-0.0204" y="51" relative="1" as="geometry">
                        <mxPoint as="offset"/>
                    </mxGeometry>
                </mxCell>
                <mxCell id="200" value="platform&lt;br&gt;worker" style="sketch=0;outlineConnect=0;fontColor=#1A1A1A;gradientColor=none;strokeColor=#1A1A1A;fillColor=none;dashed=0;verticalLabelPosition=bottom;verticalAlign=top;align=center;html=1;fontSize=12;fontStyle=0;aspect=fixed;shape=mxgraph.aws4.resourceIcon;resIcon=mxgraph.aws4.user;fontFamily=Helvetica;labelBackgroundColor=none;" vertex="1" parent="1">
                    <mxGeometry x="550.75" y="421" width="60" height="60" as="geometry"/>
                </mxCell>
                <mxCell id="201" value="user" style="sketch=0;outlineConnect=0;fontColor=#1A1A1A;gradientColor=none;strokeColor=#1A1A1A;fillColor=none;dashed=0;verticalLabelPosition=bottom;verticalAlign=top;align=center;html=1;fontSize=12;fontStyle=0;aspect=fixed;shape=mxgraph.aws4.resourceIcon;resIcon=mxgraph.aws4.user;fontFamily=Helvetica;labelBackgroundColor=none;" vertex="1" parent="1">
                    <mxGeometry x="488.25" y="421" width="60" height="60" as="geometry"/>
                </mxCell>
                <mxCell id="203" value="devdocs" style="rounded=0;whiteSpace=wrap;html=1;fontColor=#1A1A1A;fillColor=#999999;fontFamily=Helvetica;labelBackgroundColor=none;strokeColor=none;" vertex="1" parent="1">
                    <mxGeometry x="895" y="153" width="120" height="60" as="geometry"/>
                </mxCell>
                <mxCell id="204" value="trained on" style="edgeStyle=orthogonalEdgeStyle;html=1;labelBackgroundColor=none;strokeColor=default;fontFamily=Helvetica;fontColor=#1A1A1A;endArrow=open;endFill=0;curved=1;exitX=0.5;exitY=0;exitDx=0;exitDy=0;dashed=1;entryX=0.5;entryY=0;entryDx=0;entryDy=0;" edge="1" parent="1" source="124" target="203">
                    <mxGeometry relative="1" as="geometry">
                        <Array as="points">
                            <mxPoint x="563" y="-94"/>
                            <mxPoint x="955" y="-94"/>
                        </Array>
                        <mxPoint x="573" y="-47" as="sourcePoint"/>
                        <mxPoint x="443.04761904761904" y="-47" as="targetPoint"/>
                    </mxGeometry>
                </mxCell>
                <mxCell id="205" style="edgeStyle=orthogonalEdgeStyle;html=1;endArrow=oval;endFill=1;curved=1;fontColor=#1A1A1A;fontFamily=Helvetica;labelBackgroundColor=none;" edge="1" parent="1" source="208">
                    <mxGeometry relative="1" as="geometry">
                        <mxPoint x="1112" y="6" as="targetPoint"/>
                    </mxGeometry>
                </mxCell>
                <mxCell id="206" value="&lt;i&gt;collaboration&lt;/i&gt;" style="edgeLabel;html=1;align=center;verticalAlign=middle;resizable=0;points=[];fontColor=#1A1A1A;fontFamily=Helvetica;labelBackgroundColor=none;" vertex="1" connectable="0" parent="205">
                    <mxGeometry x="0.3083" y="-1" relative="1" as="geometry">
                        <mxPoint x="-38" y="2" as="offset"/>
                    </mxGeometry>
                </mxCell>
                <mxCell id="207" value="feature" style="edgeStyle=orthogonalEdgeStyle;curved=1;html=1;endArrow=oval;endFill=1;exitX=0.5;exitY=0;exitDx=0;exitDy=0;exitPerimeter=0;fontColor=#1A1A1A;fontFamily=Helvetica;labelBackgroundColor=none;" edge="1" parent="1" source="208">
                    <mxGeometry x="0.3565" y="-4" relative="1" as="geometry">
                        <mxPoint x="1187.9999999999998" y="6" as="targetPoint"/>
                        <Array as="points">
                            <mxPoint x="1111" y="78"/>
                            <mxPoint x="1188" y="78"/>
                        </Array>
                        <mxPoint as="offset"/>
                    </mxGeometry>
                </mxCell>
                <mxCell id="208" value="product" style="verticalLabelPosition=bottom;html=1;verticalAlign=top;align=center;strokeColor=none;fillColor=#00BEF2;shape=mxgraph.azure.git_repository;dashed=1;fontColor=#1A1A1A;fontFamily=Helvetica;labelBackgroundColor=#CCCCCC;" vertex="1" parent="1">
                    <mxGeometry x="1086" y="159" width="50" height="50" as="geometry"/>
                </mxCell>
                <mxCell id="209" value="PR" style="endArrow=none;dashed=1;html=1;strokeWidth=2;curved=1;startArrow=open;startFill=0;fontColor=#1A1A1A;fontFamily=Helvetica;labelBackgroundColor=none;" edge="1" parent="1">
                    <mxGeometry y="9" width="50" height="50" relative="1" as="geometry">
                        <mxPoint x="1116" y="6" as="sourcePoint"/>
                        <mxPoint x="1186" y="6" as="targetPoint"/>
                        <mxPoint as="offset"/>
                    </mxGeometry>
                </mxCell>
                <mxCell id="210" style="html=1;startArrow=none;startFill=0;endArrow=none;endFill=0;dashed=1;strokeColor=default;fontColor=#1A1A1A;fontFamily=Helvetica;labelBackgroundColor=none;" edge="1" parent="1" source="208" target="203">
                    <mxGeometry relative="1" as="geometry">
                        <mxPoint x="661" y="188.08196721311492" as="sourcePoint"/>
                        <mxPoint x="441" y="188.80327868852464" as="targetPoint"/>
                    </mxGeometry>
                </mxCell>
            </root>
        </mxGraphModel>
    </diagram>
</mxfile>